<?xml version="1.0" encoding="UTF-8" standalone="no"?>
<!-- Created with Inkscape (http://www.inkscape.org/) -->

<svg
   xmlns:dc="http://purl.org/dc/elements/1.1/"
   xmlns:cc="http://creativecommons.org/ns#"
   xmlns:rdf="http://www.w3.org/1999/02/22-rdf-syntax-ns#"
   xmlns:svg="http://www.w3.org/2000/svg"
   xmlns="http://www.w3.org/2000/svg"
   xmlns:xlink="http://www.w3.org/1999/xlink"
   xmlns:sodipodi="http://sodipodi.sourceforge.net/DTD/sodipodi-0.dtd"
   xmlns:inkscape="http://www.inkscape.org/namespaces/inkscape"
   version="1.1"
   width="424.22501"
   height="494.84299"
   id="svg3033"
   inkscape:version="0.91 r13725"
   sodipodi:docname="bass-schlüssel-flach.svg">
  <sodipodi:namedview
     pagecolor="#ffffff"
     bordercolor="#666666"
     borderopacity="1"
     objecttolerance="10"
     gridtolerance="10"
     guidetolerance="10"
     inkscape:pageopacity="0"
     inkscape:pageshadow="2"
     inkscape:window-width="1920"
     inkscape:window-height="1007"
     id="namedview14"
     showgrid="false"
     inkscape:zoom="0.70710678"
     inkscape:cx="551.86029"
     inkscape:cy="278.75184"
     inkscape:window-x="0"
     inkscape:window-y="0"
     inkscape:window-maximized="1"
     inkscape:current-layer="svg3033" />
  <title
     id="title3077">Bass Clef</title>
  <defs
     id="defs3035">
    <linearGradient
       x1="598.60864"
       y1="490.82504"
       x2="881.5011"
       y2="490.82504"
       id="linearGradient3776"
       xlink:href="#linearGradient3013-7"
       gradientUnits="userSpaceOnUse" />
    <linearGradient
       id="linearGradient3013-7">
      <stop
         id="stop3015-9"
         style="stop-color:#000000;stop-opacity:0.8263889"
         offset="0" />
      <stop
         id="stop3017-0"
         style="stop-color:#000000;stop-opacity:1"
         offset="1" />
    </linearGradient>
    <linearGradient
       x1="598.60864"
       y1="490.82504"
       x2="881.5011"
       y2="490.82504"
       id="linearGradient3793"
       xlink:href="#linearGradient3013-7"
       gradientUnits="userSpaceOnUse"
       gradientTransform="translate(-368.00764,35.356037)" />
    <linearGradient
       x1="-543.25403"
       y1="770.93732"
       x2="-190.87596"
       y2="231.08823"
       id="linearGradient3770"
       xlink:href="#linearGradient3013-7"
       gradientUnits="userSpaceOnUse"
       gradientTransform="translate(729.67433,-22.021336)" />
  </defs>
  <metadata
     id="metadata3038">
    <rdf:RDF>
      <cc:Work
         rdf:about="">
        <dc:format>image/svg+xml</dc:format>
        <dc:type
           rdf:resource="http://purl.org/dc/dcmitype/StillImage" />
        <dc:title>Bass Clef</dc:title>
        <dc:creator>
          <cc:Agent>
            <dc:title>Jaschon</dc:title>
          </cc:Agent>
        </dc:creator>
        <cc:license
           rdf:resource="http://creativecommons.org/publicdomain/zero/1.0/" />
      </cc:Work>
      <cc:License
         rdf:about="http://creativecommons.org/publicdomain/zero/1.0/">
        <cc:permits
           rdf:resource="http://creativecommons.org/ns#Reproduction" />
        <cc:permits
           rdf:resource="http://creativecommons.org/ns#Distribution" />
        <cc:permits
           rdf:resource="http://creativecommons.org/ns#DerivativeWorks" />
      </cc:License>
    </rdf:RDF>
  </metadata>
  <path
     inkscape:connector-curvature="0"
     style="fill:#ff2d2d;fill-opacity:1;fill-rule:evenodd;stroke:#ff2d2d;stroke-opacity:0.00392157"
     id="path3"
     d="m 30.997018,172.49111 c 11.66109,14.71933 32.32286,24.49078 55.84396,24.49078 36.400522,0 65.888922,-23.37191 65.888922,-52.21386 0,-28.84194 -29.4884,-52.213769 -65.888922,-52.213769 -20.31367,4.15224 -28.5933,9.000589 -33.14336,-2.90906 17.97648,-54.32728 46.917872,-66.70942 96.545912,-66.70942 65.91378,0 96.96859,59.89675 96.96859,142.966439 C 228.987,356.53253 41.265738,452.65575 0.63838822,482.09442 6.3321882,495.19761 6.0338182,494.7252 6.0338182,494.10361 195.81876,407.90102 336.72159,289.67392 336.72159,173.36134 336.72159,80.942891 278.14261,-2.2263347 149.00034,0.55840503 71.425458,0.55840503 -21.316292,86.761001 30.997018,172.49111 Z M 359.09896,82.608761 c 0,17.852089 14.4707,32.322779 32.32286,32.322779 17.85217,0 32.32287,-14.47069 32.32287,-32.322779 0,-17.85217 -14.4707,-32.32286 -32.32287,-32.32286 -17.85216,0 -32.32286,14.47069 -32.32286,32.32286 z m 0,136.750499 c 0,17.85217 14.4707,32.32287 32.32286,32.32287 17.85217,0 32.32287,-14.4707 32.32287,-32.32287 0,-17.85217 -14.4707,-32.32286 -32.32287,-32.32286 -17.85216,0 -32.32286,14.47069 -32.32286,32.32286 z" />
</svg>
